<svg xmlns="http://www.w3.org/2000/svg" viewBox="0 0 256 256">
  <defs>
    <linearGradient id="bg" x1="0%" x2="100%" y1="0%" y2="100%">
      <stop offset="0%" stop-color="#081924"/>
      <stop offset="100%" stop-color="#133247"/>
    </linearGradient>
  </defs>
  <rect width="256" height="256" rx="44" fill="url(#bg)"/>
  <path d="M48 164c16-36 30-54 44-54 11 0 18 11 24 28 6 17 10 28 18 28 9 0 16-13 24-33 8-20 17-33 30-33 9 0 18 6 28 18v24c-9-13-18-19-28-19-8 0-15 11-23 32-9 24-19 46-41 46-20 0-29-20-36-40-5-14-9-23-15-23-8 0-20 18-36 54z" fill="#f3f6f8"/>
  <path d="M56 92h144" stroke="#74d7ff" stroke-linecap="round" stroke-width="12"/>
</svg>
